# xmcd
#
# Track frame offsets:
#	150
#	20393
#	42836
#	61689
#	73855
#	92891
#	113275
#	133513
#	155951
#	174797
#	186961
#	205975
#
# Disc length: 3020 seconds
#
# Revision: 1
# Processed by: cddbd v1.5.2PL0 Copyright (c) Steve Scherf et al.
# Submitted via: audiograbber 1.83.01
#
DISCID=9d0bca0c
DTITLE=Karaoke Style - Country Gospel Hits Vol. 4
DYEAR=2007
DGENRE=Karaoke
TTITLE0=Anyway
TTITLE1=Believe
TTITLE2=He Ain't The Leavin Kind
TTITLE3=Jesus On The Main Line
TTITLE4=Long Black Train
TTITLE5=They Don't Understand
TTITLE6=Anyway - (Vocal)
TTITLE7=Believe - (Vocal)
TTITLE8=He Ain't The Leavin Kind - (Vocal)
TTITLE9=Jesus On The Main Line - (Vocal)
TTITLE10=Long Black Train - (Vocal)
TTITLE11=They Don't Understand - (Vocal)
EXTD=
EXTT0=
EXTT1=
EXTT2=
EXTT3=
EXTT4=
EXTT5=
EXTT6=
EXTT7=
EXTT8=
EXTT9=
EXTT10=
EXTT11=
PLAYORDER=
